<?xml version="1.0" standalone="no"?>
<!DOCTYPE svg PUBLIC "-//W3C//DTD SVG 20010904//EN"
 "http://www.w3.org/TR/2001/REC-SVG-20010904/DTD/svg10.dtd">
<svg version="1.0" xmlns="http://www.w3.org/2000/svg"
 width="260.000000pt" height="260.000000pt" viewBox="0 0 260.000000 260.000000"
 preserveAspectRatio="xMidYMid meet">
<metadata>
Created by potrace 1.14, written by Peter Selinger 2001-2017
</metadata>
<g transform="translate(0.000000,260.000000) scale(0.100000,-0.100000)"
fill="#000000" stroke="none">
<path d="M1150 2593 c-291 -44 -519 -149 -720 -330 -286 -257 -434 -604 -425
-993 2 -80 6 -158 10 -175 21 -101 28 -128 51 -200 61 -191 163 -356 318 -510
194 -193 398 -304 667 -361 117 -25 380 -25 498 0 351 75 642 270 834 559 93
141 172 334 193 472 3 22 10 60 14 85 9 48 6 305 -4 355 -4 17 -11 53 -16 80
-29 143 -104 317 -195 456 -62 93 -248 280 -340 341 -135 90 -318 169 -455
197 -30 6 -68 13 -85 17 -35 7 -309 12 -345 7z"/>
</g>
</svg>
